<?xml version="1.0" encoding="UTF-8" standalone="no"?>
<svg
   xmlns:dc="http://purl.org/dc/elements/1.1/"
   xmlns:cc="http://creativecommons.org/ns#"
   xmlns:rdf="http://www.w3.org/1999/02/22-rdf-syntax-ns#"
   xmlns:svg="http://www.w3.org/2000/svg"
   xmlns="http://www.w3.org/2000/svg"
   xmlns:sodipodi="http://sodipodi.sourceforge.net/DTD/sodipodi-0.dtd"
   xmlns:inkscape="http://www.inkscape.org/namespaces/inkscape"
   inkscape:export-ydpi="576"
   inkscape:export-xdpi="576"
   inkscape:export-filename="D:\september#1\export\filled line\png\26 - Shooting.png"
   width="64pt"
   height="64pt"
   viewBox="0 0 22.577778 22.577778"
   version="1.1"
   id="svg831"
   inkscape:version="1.0 (4035a4fb49, 2020-05-01)"
   sodipodi:docname="27 - Football Net.svg">
  <defs
     id="defs825">
    <pattern
       id="EMFhbasepattern"
       patternUnits="userSpaceOnUse"
       width="6"
       height="6"
       x="0"
       y="0" />
    <pattern
       id="EMFhbasepattern-9"
       patternUnits="userSpaceOnUse"
       width="6"
       height="6"
       x="0"
       y="0" />
    <pattern
       id="EMFhbasepattern-0"
       patternUnits="userSpaceOnUse"
       width="6"
       height="6"
       x="0"
       y="0" />
    <pattern
       id="EMFhbasepattern-7"
       patternUnits="userSpaceOnUse"
       width="6"
       height="6"
       x="0"
       y="0" />
    <pattern
       id="EMFhbasepattern-2"
       patternUnits="userSpaceOnUse"
       width="6"
       height="6"
       x="0"
       y="0" />
    <pattern
       id="EMFhbasepattern-98"
       patternUnits="userSpaceOnUse"
       width="6"
       height="6"
       x="0"
       y="0" />
    <pattern
       id="EMFhbasepattern-6"
       patternUnits="userSpaceOnUse"
       width="6"
       height="6"
       x="0"
       y="0" />
    <pattern
       id="EMFhbasepattern-01"
       patternUnits="userSpaceOnUse"
       width="6"
       height="6"
       x="0"
       y="0" />
    <pattern
       id="EMFhbasepattern-07"
       patternUnits="userSpaceOnUse"
       width="6"
       height="6"
       x="0"
       y="0" />
    <pattern
       id="EMFhbasepattern-8"
       patternUnits="userSpaceOnUse"
       width="6"
       height="6"
       x="0"
       y="0" />
    <pattern
       id="EMFhbasepattern-4"
       patternUnits="userSpaceOnUse"
       width="6"
       height="6"
       x="0"
       y="0" />
    <pattern
       id="EMFhbasepattern-40"
       patternUnits="userSpaceOnUse"
       width="6"
       height="6"
       x="0"
       y="0" />
    <pattern
       id="EMFhbasepattern-08"
       patternUnits="userSpaceOnUse"
       width="6"
       height="6"
       x="0"
       y="0" />
    <pattern
       id="EMFhbasepattern-04"
       patternUnits="userSpaceOnUse"
       width="6"
       height="6"
       x="0"
       y="0" />
    <pattern
       id="EMFhbasepattern-014"
       patternUnits="userSpaceOnUse"
       width="6"
       height="6"
       x="0"
       y="0" />
    <pattern
       id="EMFhbasepattern-27"
       patternUnits="userSpaceOnUse"
       width="6"
       height="6"
       x="0"
       y="0" />
    <pattern
       id="EMFhbasepattern-09"
       patternUnits="userSpaceOnUse"
       width="6"
       height="6"
       x="0"
       y="0" />
    <pattern
       id="EMFhbasepattern-5"
       patternUnits="userSpaceOnUse"
       width="6"
       height="6"
       x="0"
       y="0" />
    <pattern
       id="EMFhbasepattern-018"
       patternUnits="userSpaceOnUse"
       width="6"
       height="6"
       x="0"
       y="0" />
  </defs>
  <sodipodi:namedview
     id="base"
     pagecolor="#ffffff"
     bordercolor="#666666"
     borderopacity="1.0"
     inkscape:pageopacity="0.0"
     inkscape:pageshadow="2"
     inkscape:zoom="6.0079346"
     inkscape:cx="42.666667"
     inkscape:cy="42.666667"
     inkscape:document-units="pt"
     inkscape:current-layer="layer1"
     showgrid="false"
     units="pt"
     inkscape:window-width="1366"
     inkscape:window-height="705"
     inkscape:window-x="-8"
     inkscape:window-y="-8"
     inkscape:window-maximized="1"
     inkscape:pagecheckerboard="true"
     inkscape:showpageshadow="false"
     inkscape:object-paths="true"
     inkscape:snap-intersection-paths="true"
     inkscape:snap-smooth-nodes="true"
     inkscape:snap-midpoints="true"
     showguides="true"
     inkscape:snap-bbox="true"
     inkscape:bbox-nodes="true"
     inkscape:snap-nodes="false"
     inkscape:snap-global="true"
     inkscape:document-rotation="0">
    <inkscape:grid
       type="xygrid"
       id="grid1378" />
    <sodipodi:guide
       position="0.97013831,21.607643"
       orientation="78.000048,0"
       id="guide1380"
       inkscape:locked="false" />
    <sodipodi:guide
       position="0.97013831,0.97013129"
       orientation="0,78.000005"
       id="guide1382"
       inkscape:locked="false" />
    <sodipodi:guide
       position="21.607639,0.97013129"
       orientation="-78.000048,0"
       id="guide1384"
       inkscape:locked="false" />
    <sodipodi:guide
       position="21.607639,21.607643"
       orientation="0,-78.000005"
       id="guide1386"
       inkscape:locked="false" />
  </sodipodi:namedview>
  <metadata
     id="metadata828">
    <rdf:RDF>
      <cc:Work
         rdf:about="">
        <dc:format>image/svg+xml</dc:format>
        <dc:type
           rdf:resource="http://purl.org/dc/dcmitype/StillImage" />
        <dc:title></dc:title>
      </cc:Work>
    </rdf:RDF>
  </metadata>
  <g
     inkscape:label="Icon"
     inkscape:groupmode="layer"
     id="layer1"
     transform="translate(0,-274.42223)">
    <g
       transform="matrix(1.2550732,0,0,1.2550732,0.65882155,-114.66709)"
       style="display:inline;stroke-width:0.796766"
       id="g773">
      <g
         style="stroke-width:0.796766"
         id="g770">
        <path
           style="color:#000000;font-style:normal;font-variant:normal;font-weight:normal;font-stretch:normal;font-size:medium;line-height:normal;font-family:sans-serif;font-variant-ligatures:normal;font-variant-position:normal;font-variant-caps:normal;font-variant-numeric:normal;font-variant-alternates:normal;font-variant-east-asian:normal;font-feature-settings:normal;font-variation-settings:normal;text-indent:0;text-align:start;text-decoration:none;text-decoration-line:none;text-decoration-style:solid;text-decoration-color:#000000;letter-spacing:normal;word-spacing:normal;text-transform:none;writing-mode:lr-tb;direction:ltr;text-orientation:mixed;dominant-baseline:auto;baseline-shift:baseline;text-anchor:start;white-space:normal;shape-padding:0;shape-margin:0;inline-size:0;clip-rule:nonzero;display:inline;overflow:visible;visibility:visible;isolation:auto;mix-blend-mode:normal;color-interpolation:sRGB;color-interpolation-filters:linearRGB;solid-color:#000000;solid-opacity:1;vector-effect:none;fill:#3a4d5c;fill-opacity:1;fill-rule:nonzero;stroke:none;stroke-width:0.421622;stroke-linecap:round;stroke-linejoin:round;stroke-miterlimit:4;stroke-dasharray:none;stroke-dashoffset:0;stroke-opacity:1;color-rendering:auto;image-rendering:auto;shape-rendering:auto;text-rendering:auto;enable-background:accumulate;stop-color:#000000"
           d="m 12.009766,314.64062 c -0.148421,0.61536 -0.115278,1.13824 0.05859,1.57422 0.173872,0.43598 0.479599,0.77512 0.833985,1.05469 0.121802,0.0959 0.299579,0.067 0.384765,-0.0625 l 0.621094,-0.93164 c 0.04547,-0.0671 0.0577,-0.15127 0.0332,-0.22851 l -0.273437,-0.8379 c -0.02191,-0.066 -0.06892,-0.12073 -0.13086,-0.15234 l -1.15039,-0.58984 c -0.19073,-0.0696 -0.272614,0.0579 -0.376947,0.17382 z"
           id="path1035"
           sodipodi:nodetypes="cscccccccc" />
        <g
           transform="translate(0,1.3076772e-5)"
           id="g1097"
           style="display:inline;opacity:1;stroke-width:0.796766" />
        <path
           transform="translate(0,1.3076772e-5)"
           style="color:#000000;font-style:normal;font-variant:normal;font-weight:normal;font-stretch:normal;font-size:medium;line-height:normal;font-family:sans-serif;font-variant-ligatures:normal;font-variant-position:normal;font-variant-caps:normal;font-variant-numeric:normal;font-variant-alternates:normal;font-variant-east-asian:normal;font-feature-settings:normal;font-variation-settings:normal;text-indent:0;text-align:start;text-decoration:none;text-decoration-line:none;text-decoration-style:solid;text-decoration-color:#000000;letter-spacing:normal;word-spacing:normal;text-transform:none;writing-mode:lr-tb;direction:ltr;text-orientation:mixed;dominant-baseline:auto;baseline-shift:baseline;text-anchor:start;white-space:normal;shape-padding:0;shape-margin:0;inline-size:0;clip-rule:nonzero;display:inline;overflow:visible;visibility:visible;isolation:auto;mix-blend-mode:normal;color-interpolation:sRGB;color-interpolation-filters:linearRGB;solid-color:#000000;solid-opacity:1;vector-effect:none;fill:#3a4d5c;fill-opacity:1;fill-rule:nonzero;stroke:none;stroke-width:0.421622;stroke-linecap:round;stroke-linejoin:round;stroke-miterlimit:4;stroke-dasharray:none;stroke-dashoffset:0;stroke-opacity:1;color-rendering:auto;image-rendering:auto;shape-rendering:auto;text-rendering:auto;enable-background:accumulate;stop-color:#000000"
           d="m 12.658207,313.5938 c -0.317139,0.30423 -0.488978,0.6662 -0.634765,1.00391 -0.05479,0.12801 -9.95e-4,0.27658 0.123046,0.33984 l 1.150391,0.58984 c 0.08855,0.0451 0.194915,0.0368 0.275391,-0.0215 l 0.710937,-0.51758 c 0.06886,-0.0499 0.109551,-0.12981 0.109375,-0.21484 v -1.55274 c -2.4e-4,-0.15252 -0.129031,-0.27326 -0.291992,-0.26269 -0.668202,0.10039 -1.125243,0.33153 -1.442383,0.63576 z"
           id="path1117"
           sodipodi:nodetypes="sccccccccs" />
        <path
           transform="translate(0,1.3076772e-5)"
           style="color:#000000;font-style:normal;font-variant:normal;font-weight:normal;font-stretch:normal;font-size:medium;line-height:normal;font-family:sans-serif;font-variant-ligatures:normal;font-variant-position:normal;font-variant-caps:normal;font-variant-numeric:normal;font-variant-alternates:normal;font-variant-east-asian:normal;font-feature-settings:normal;font-variation-settings:normal;text-indent:0;text-align:start;text-decoration:none;text-decoration-line:none;text-decoration-style:solid;text-decoration-color:#000000;letter-spacing:normal;word-spacing:normal;text-transform:none;writing-mode:lr-tb;direction:ltr;text-orientation:mixed;dominant-baseline:auto;baseline-shift:baseline;text-anchor:start;white-space:normal;shape-padding:0;shape-margin:0;inline-size:0;clip-rule:nonzero;display:inline;overflow:visible;visibility:visible;isolation:auto;mix-blend-mode:normal;color-interpolation:sRGB;color-interpolation-filters:linearRGB;solid-color:#000000;solid-opacity:1;vector-effect:none;fill:#3a4d5c;fill-opacity:1;fill-rule:nonzero;stroke:none;stroke-width:0.421622;stroke-linecap:round;stroke-linejoin:round;stroke-miterlimit:4;stroke-dasharray:none;stroke-dashoffset:0;stroke-opacity:1;color-rendering:auto;image-rendering:auto;shape-rendering:auto;text-rendering:auto;enable-background:accumulate;stop-color:#000000"
           d="m 14.707031,315.06254 c -0.05638,0.0325 -0.09879,0.0847 -0.11914,0.14648 l -0.271485,0.8379 c -0.02621,0.082 -0.01091,0.17159 0.04102,0.24023 l 0.777344,1.03711 c 0.08127,0.10847 0.231355,0.138 0.347656,0.0684 1.203239,-0.71782 1.467927,-2.16628 0.972656,-3.04492 -0.05073,-0.091 -0.150121,-0.14374 -0.309572,-0.11721 z"
           id="path1123"
           sodipodi:nodetypes="ccccccccc" />
        <path
           transform="translate(0,1.3076772e-5)"
           style="color:#000000;font-style:normal;font-variant:normal;font-weight:normal;font-stretch:normal;font-size:medium;line-height:normal;font-family:sans-serif;font-variant-ligatures:normal;font-variant-position:normal;font-variant-caps:normal;font-variant-numeric:normal;font-variant-alternates:normal;font-variant-east-asian:normal;font-feature-settings:normal;font-variation-settings:normal;text-indent:0;text-align:start;text-decoration:none;text-decoration-line:none;text-decoration-style:solid;text-decoration-color:#000000;letter-spacing:normal;word-spacing:normal;text-transform:none;writing-mode:lr-tb;direction:ltr;text-orientation:mixed;dominant-baseline:auto;baseline-shift:baseline;text-anchor:start;white-space:normal;shape-padding:0;shape-margin:0;inline-size:0;clip-rule:nonzero;display:inline;overflow:visible;visibility:visible;isolation:auto;mix-blend-mode:normal;color-interpolation:sRGB;color-interpolation-filters:linearRGB;solid-color:#000000;solid-opacity:1;vector-effect:none;fill:#3a4d5c;fill-opacity:1;fill-rule:nonzero;stroke:none;stroke-width:0.421622;stroke-linecap:round;stroke-linejoin:round;stroke-miterlimit:4;stroke-dasharray:none;stroke-dashoffset:0;stroke-opacity:1;color-rendering:auto;image-rendering:auto;shape-rendering:auto;text-rendering:auto;enable-background:accumulate;stop-color:#000000"
           d="m 13.863281,313.2207 v 1.55274 c -1.76e-4,0.085 0.04052,0.16496 0.109375,0.21484 l 0.712891,0.51758 c 0.0851,0.0615 0.198525,0.0669 0.289062,0.0137 l 1.384766,-0.81445 c 0.121772,-0.0718 0.165635,-0.22658 0.09961,-0.35156 -0.493217,-0.93576 -1.31582,-1.43723 -2.341796,-1.39651 -0.141582,0.006 -0.253521,0.12196 -0.253908,0.26366 z"
           id="path1129"
           sodipodi:nodetypes="ccccccccc" />
        <path
           transform="translate(0,1.3076772e-5)"
           style="color:#000000;font-style:normal;font-variant:normal;font-weight:normal;font-stretch:normal;font-size:medium;line-height:normal;font-family:sans-serif;font-variant-ligatures:normal;font-variant-position:normal;font-variant-caps:normal;font-variant-numeric:normal;font-variant-alternates:normal;font-variant-east-asian:normal;font-feature-settings:normal;font-variation-settings:normal;text-indent:0;text-align:start;text-decoration:none;text-decoration-line:none;text-decoration-style:solid;text-decoration-color:#000000;letter-spacing:normal;word-spacing:normal;text-transform:none;writing-mode:lr-tb;direction:ltr;text-orientation:mixed;dominant-baseline:auto;baseline-shift:baseline;text-anchor:start;white-space:normal;shape-padding:0;shape-margin:0;inline-size:0;clip-rule:nonzero;display:inline;overflow:visible;visibility:visible;isolation:auto;mix-blend-mode:normal;color-interpolation:sRGB;color-interpolation-filters:linearRGB;solid-color:#000000;solid-opacity:1;vector-effect:none;fill:#3a4d5c;fill-opacity:1;fill-rule:nonzero;stroke:none;stroke-width:0.421622;stroke-linecap:round;stroke-linejoin:round;stroke-miterlimit:4;stroke-dasharray:none;stroke-dashoffset:0;stroke-opacity:1;color-rendering:auto;image-rendering:auto;shape-rendering:auto;text-rendering:auto;enable-background:accumulate;stop-color:#000000"
           d="m 13.689453,315.86328 a 0.26460996,0.26460996 0 0 0 -0.220703,0.11719 l -0.623047,0.93359 a 0.26460996,0.26460996 0 0 0 0.07617,0.36914 c 0.896326,0.58317 1.782898,0.51242 2.544922,0.11719 a 0.26460996,0.26460996 0 0 0 0.08984,-0.39453 l -0.777344,-1.03711 a 0.26460996,0.26460996 0 0 0 -0.210938,-0.10547 z"
           id="path1137" />
        <path
           transform="translate(0,1.3076772e-5)"
           style="color:#000000;font-style:normal;font-variant:normal;font-weight:normal;font-stretch:normal;font-size:medium;line-height:normal;font-family:sans-serif;font-variant-ligatures:normal;font-variant-position:normal;font-variant-caps:normal;font-variant-numeric:normal;font-variant-alternates:normal;font-variant-east-asian:normal;font-feature-settings:normal;font-variation-settings:normal;text-indent:0;text-align:start;text-decoration:none;text-decoration-line:none;text-decoration-style:solid;text-decoration-color:#000000;letter-spacing:normal;word-spacing:normal;text-transform:none;writing-mode:lr-tb;direction:ltr;text-orientation:mixed;dominant-baseline:auto;baseline-shift:baseline;text-anchor:start;white-space:normal;shape-padding:0;shape-margin:0;inline-size:0;clip-rule:nonzero;display:inline;overflow:visible;visibility:visible;isolation:auto;mix-blend-mode:normal;color-interpolation:sRGB;color-interpolation-filters:linearRGB;solid-color:#000000;solid-opacity:1;vector-effect:none;fill:#3a4d5c;fill-opacity:1;fill-rule:nonzero;stroke:none;stroke-width:0.421622;stroke-linecap:round;stroke-linejoin:round;stroke-miterlimit:4;stroke-dasharray:none;stroke-dashoffset:0;stroke-opacity:1;color-rendering:auto;image-rendering:auto;shape-rendering:auto;text-rendering:auto;enable-background:accumulate;stop-color:#000000"
           d="m 13.972656,314.56057 -0.710937,0.51757 c -0.09219,0.0674 -0.130773,0.18627 -0.0957,0.29493 l 0.271484,0.83593 c 0.03519,0.10943 0.137005,0.18362 0.251953,0.1836 h 0.878906 c 0.114948,2e-5 0.216762,-0.0742 0.251953,-0.1836 l 0.271485,-0.83593 c 0.03507,-0.10866 -0.0035,-0.22756 -0.0957,-0.29493 l -0.712891,-0.51757 c -0.142568,-0.078 -0.176514,-0.0354 -0.310553,0 z"
           id="path1146"
           sodipodi:nodetypes="ccccccccccc" />
        <path
           transform="translate(0,1.3076772e-5)"
           style="color:#000000;font-style:normal;font-variant:normal;font-weight:normal;font-stretch:normal;font-size:medium;line-height:normal;font-family:sans-serif;font-variant-ligatures:normal;font-variant-position:normal;font-variant-caps:normal;font-variant-numeric:normal;font-variant-alternates:normal;font-variant-east-asian:normal;font-feature-settings:normal;font-variation-settings:normal;text-indent:0;text-align:start;text-decoration:none;text-decoration-line:none;text-decoration-style:solid;text-decoration-color:#000000;letter-spacing:normal;word-spacing:normal;text-transform:none;writing-mode:lr-tb;direction:ltr;text-orientation:mixed;dominant-baseline:auto;baseline-shift:baseline;text-anchor:start;white-space:normal;shape-padding:0;shape-margin:0;inline-size:0;clip-rule:nonzero;display:inline;overflow:visible;visibility:visible;isolation:auto;mix-blend-mode:normal;color-interpolation:sRGB;color-interpolation-filters:linearRGB;solid-color:#000000;solid-opacity:1;vector-effect:none;fill:#ececec;fill-opacity:1;fill-rule:nonzero;stroke:none;stroke-width:0.421622;stroke-linecap:round;stroke-linejoin:round;stroke-miterlimit:4;stroke-dasharray:none;stroke-dashoffset:0;stroke-opacity:1;color-rendering:auto;image-rendering:auto;shape-rendering:auto;text-rendering:auto;enable-background:accumulate;stop-color:#000000"
           d="m 2.6035156,311.35742 a 0.26460996,0.26460996 0 0 0 -0.2636718,0.26953 l 0.025391,1.32422 a 0.26460996,0.26460996 0 0 0 0.265625,0.25781 h 2.7109375 c 0.3218741,0 0.8499133,0.27488 1.03125,0.53711 3.0793187,4.45299 5.3051837,8.79362 8.4765617,13.30469 a 0.26460996,0.26460996 0 0 0 0.210938,0.11133 l 1.322265,0.0254 a 0.26460996,0.26460996 0 0 0 0.230469,-0.4043 L 7.5058594,312.15625 c -0.3083545,-0.49679 -0.8508382,-0.79883 -1.4355469,-0.79883 z"
           id="path1157" />
        <path
           id="path577"
           style="color:#000000;font-style:normal;font-variant:normal;font-weight:normal;font-stretch:normal;font-size:medium;line-height:normal;font-family:sans-serif;font-variant-ligatures:normal;font-variant-position:normal;font-variant-caps:normal;font-variant-numeric:normal;font-variant-alternates:normal;font-variant-east-asian:normal;font-feature-settings:normal;font-variation-settings:normal;text-indent:0;text-align:start;text-decoration:none;text-decoration-line:none;text-decoration-style:solid;text-decoration-color:#000000;letter-spacing:normal;word-spacing:normal;text-transform:none;writing-mode:lr-tb;direction:ltr;text-orientation:mixed;dominant-baseline:auto;baseline-shift:baseline;text-anchor:start;white-space:normal;shape-padding:0;shape-margin:0;inline-size:0;clip-rule:nonzero;display:inline;overflow:visible;visibility:visible;isolation:auto;mix-blend-mode:normal;color-interpolation:sRGB;color-interpolation-filters:linearRGB;solid-color:#000000;solid-opacity:1;vector-effect:none;fill:#cccccc;fill-opacity:1;fill-rule:nonzero;stroke:none;stroke-width:1.59353;stroke-linecap:round;stroke-linejoin:round;stroke-miterlimit:4;stroke-dasharray:none;stroke-dashoffset:0;stroke-opacity:1;color-rendering:auto;image-rendering:auto;shape-rendering:auto;text-rendering:auto;enable-background:accumulate;stop-color:#000000"
           d="M 9.8398438,118.26367 A 1.0001006,1.0001006 0 0 0 8.84375,119.2832 l 0.095703,5.00391 a 1.0001006,1.0001006 0 0 0 1.0039063,0.97461 H 13.242188 V 120 c 0,-0.60238 -0.09053,-1.18569 -0.257813,-1.73633 z"
           transform="matrix(0.26458334,0,0,0.26458334,0,280.06666)" />
        <path
           transform="translate(0,1.3076772e-5)"
           style="color:#000000;font-style:normal;font-variant:normal;font-weight:normal;font-stretch:normal;font-size:medium;line-height:normal;font-family:sans-serif;font-variant-ligatures:normal;font-variant-position:normal;font-variant-caps:normal;font-variant-numeric:normal;font-variant-alternates:normal;font-variant-east-asian:normal;font-feature-settings:normal;font-variation-settings:normal;text-indent:0;text-align:start;text-decoration:none;text-decoration-line:none;text-decoration-style:solid;text-decoration-color:#000000;letter-spacing:normal;word-spacing:normal;text-transform:none;writing-mode:lr-tb;direction:ltr;text-orientation:mixed;dominant-baseline:auto;baseline-shift:baseline;text-anchor:start;white-space:normal;shape-padding:0;shape-margin:0;inline-size:0;clip-rule:nonzero;display:inline;overflow:visible;visibility:visible;isolation:auto;mix-blend-mode:normal;color-interpolation:sRGB;color-interpolation-filters:linearRGB;solid-color:#000000;solid-opacity:1;vector-effect:none;fill:#ececec;fill-opacity:1;fill-rule:nonzero;stroke:none;stroke-width:0.421622;stroke-linecap:round;stroke-linejoin:round;stroke-miterlimit:4;stroke-dasharray:none;stroke-dashoffset:0;stroke-opacity:1;color-rendering:auto;image-rendering:auto;shape-rendering:auto;text-rendering:auto;enable-background:accumulate;stop-color:#000000"
           d="m 13.863281,313.50494 v 1.13373 l -0.470703,0.34375 -0.806123,-0.43006 c 0.109373,-0.22571 0.264416,-0.41034 0.438936,-0.57775 0.171492,-0.16451 0.502669,-0.37184 0.83789,-0.46967 z"
           id="path1246"
           sodipodi:nodetypes="ccccsc" />
        <path
           transform="translate(0,1.3076772e-5)"
           style="color:#000000;font-style:normal;font-variant:normal;font-weight:normal;font-stretch:normal;font-size:medium;line-height:normal;font-family:sans-serif;font-variant-ligatures:normal;font-variant-position:normal;font-variant-caps:normal;font-variant-numeric:normal;font-variant-alternates:normal;font-variant-east-asian:normal;font-feature-settings:normal;font-variation-settings:normal;text-indent:0;text-align:start;text-decoration:none;text-decoration-line:none;text-decoration-style:solid;text-decoration-color:#000000;letter-spacing:normal;word-spacing:normal;text-transform:none;writing-mode:lr-tb;direction:ltr;text-orientation:mixed;dominant-baseline:auto;baseline-shift:baseline;text-anchor:start;white-space:normal;shape-padding:0;shape-margin:0;inline-size:0;clip-rule:nonzero;display:inline;overflow:visible;visibility:visible;isolation:auto;mix-blend-mode:normal;color-interpolation:sRGB;color-interpolation-filters:linearRGB;solid-color:#000000;solid-opacity:1;vector-effect:none;fill:#ececec;fill-opacity:1;fill-rule:nonzero;stroke:none;stroke-width:0.421622;stroke-linecap:round;stroke-linejoin:round;stroke-miterlimit:4;stroke-dasharray:none;stroke-dashoffset:0;stroke-opacity:1;color-rendering:auto;image-rendering:auto;shape-rendering:auto;text-rendering:auto;enable-background:accumulate;stop-color:#000000"
           d="m 16.069795,314.87375 c 0.154657,0.55945 -5.6e-5,1.40723 -0.647369,1.93148 l -0.559145,-0.72515 0.197266,-0.61133 z"
           id="path1262"
           sodipodi:nodetypes="ccccc" />
        <path
           transform="translate(0,1.3076772e-5)"
           style="color:#000000;font-style:normal;font-variant:normal;font-weight:normal;font-stretch:normal;font-size:medium;line-height:normal;font-family:sans-serif;font-variant-ligatures:normal;font-variant-position:normal;font-variant-caps:normal;font-variant-numeric:normal;font-variant-alternates:normal;font-variant-east-asian:normal;font-feature-settings:normal;font-variation-settings:normal;text-indent:0;text-align:start;text-decoration:none;text-decoration-line:none;text-decoration-style:solid;text-decoration-color:#000000;letter-spacing:normal;word-spacing:normal;text-transform:none;writing-mode:lr-tb;direction:ltr;text-orientation:mixed;dominant-baseline:auto;baseline-shift:baseline;text-anchor:start;white-space:normal;shape-padding:0;shape-margin:0;inline-size:0;clip-rule:nonzero;display:inline;overflow:visible;visibility:visible;isolation:auto;mix-blend-mode:normal;color-interpolation:sRGB;color-interpolation-filters:linearRGB;solid-color:#000000;solid-opacity:1;vector-effect:none;fill:#ececec;fill-opacity:1;fill-rule:nonzero;stroke:none;stroke-width:0.421622;stroke-linecap:round;stroke-linejoin:round;stroke-miterlimit:4;stroke-dasharray:none;stroke-dashoffset:0;stroke-opacity:1;color-rendering:auto;image-rendering:auto;shape-rendering:auto;text-rendering:auto;enable-background:accumulate;stop-color:#000000"
           d="m 14.381744,313.4888 c 0.611972,0.0429 1.171823,0.36447 1.525241,0.90662 l -1.051516,0.57919 -0.462891,-0.33399 z"
           id="path1271"
           sodipodi:nodetypes="ccccc" />
        <path
           transform="translate(0,1.3076772e-5)"
           style="color:#000000;font-style:normal;font-variant:normal;font-weight:normal;font-stretch:normal;font-size:medium;line-height:normal;font-family:sans-serif;font-variant-ligatures:normal;font-variant-position:normal;font-variant-caps:normal;font-variant-numeric:normal;font-variant-alternates:normal;font-variant-east-asian:normal;font-feature-settings:normal;font-variation-settings:normal;text-indent:0;text-align:start;text-decoration:none;text-decoration-line:none;text-decoration-style:solid;text-decoration-color:#000000;letter-spacing:normal;word-spacing:normal;text-transform:none;writing-mode:lr-tb;direction:ltr;text-orientation:mixed;dominant-baseline:auto;baseline-shift:baseline;text-anchor:start;white-space:normal;shape-padding:0;shape-margin:0;inline-size:0;clip-rule:nonzero;display:inline;overflow:visible;visibility:visible;isolation:auto;mix-blend-mode:normal;color-interpolation:sRGB;color-interpolation-filters:linearRGB;solid-color:#000000;solid-opacity:1;vector-effect:none;fill:#ececec;fill-opacity:1;fill-rule:nonzero;stroke:none;stroke-width:0.421622;stroke-linecap:round;stroke-linejoin:round;stroke-miterlimit:4;stroke-dasharray:none;stroke-dashoffset:0;stroke-opacity:1;color-rendering:auto;image-rendering:auto;shape-rendering:auto;text-rendering:auto;enable-background:accumulate;stop-color:#000000"
           d="m 13.830078,316.39258 h 0.605469 l 0.501252,0.67917 c -0.454545,0.16964 -0.984342,0.1658 -1.496645,-0.0879 z"
           id="path1254"
           sodipodi:nodetypes="ccccc" />
        <path
           transform="translate(0,1.3076772e-5)"
           style="color:#000000;font-style:normal;font-variant:normal;font-weight:normal;font-stretch:normal;font-size:medium;line-height:normal;font-family:sans-serif;font-variant-ligatures:normal;font-variant-position:normal;font-variant-caps:normal;font-variant-numeric:normal;font-variant-alternates:normal;font-variant-east-asian:normal;font-feature-settings:normal;font-variation-settings:normal;text-indent:0;text-align:start;text-decoration:none;text-decoration-line:none;text-decoration-style:solid;text-decoration-color:#000000;letter-spacing:normal;word-spacing:normal;text-transform:none;writing-mode:lr-tb;direction:ltr;text-orientation:mixed;dominant-baseline:auto;baseline-shift:baseline;text-anchor:start;white-space:normal;shape-padding:0;shape-margin:0;inline-size:0;clip-rule:nonzero;display:inline;overflow:visible;visibility:visible;isolation:auto;mix-blend-mode:normal;color-interpolation:sRGB;color-interpolation-filters:linearRGB;solid-color:#000000;solid-opacity:1;vector-effect:none;fill:#ececec;fill-opacity:1;fill-rule:nonzero;stroke:none;stroke-width:0.421622;stroke-linecap:round;stroke-linejoin:round;stroke-miterlimit:4;stroke-dasharray:none;stroke-dashoffset:0;stroke-opacity:1;color-rendering:auto;image-rendering:auto;shape-rendering:auto;text-rendering:auto;enable-background:accumulate;stop-color:#000000"
           d="m 1.2363281,310.82812 c -0.54264421,0 -0.98828123,0.44564 -0.98828122,0.98829 v 14.48242 c -10e-9,0.47396 0.39127693,0.86328 0.86523432,0.86328 H 2.03125 c 0.4739574,0 0.8632812,-0.38932 0.8632812,-0.86328 v -14.48242 c 0,-0.54265 -0.445637,-0.98828 -0.9882812,-0.98829 z"
           id="path1107" />
        <path
           style="color:#000000;font-style:normal;font-variant:normal;font-weight:normal;font-stretch:normal;font-size:medium;line-height:normal;font-family:sans-serif;font-variant-ligatures:normal;font-variant-position:normal;font-variant-caps:normal;font-variant-numeric:normal;font-variant-alternates:normal;font-variant-east-asian:normal;font-feature-settings:normal;font-variation-settings:normal;text-indent:0;text-align:start;text-decoration:none;text-decoration-line:none;text-decoration-style:solid;text-decoration-color:#000000;letter-spacing:normal;word-spacing:normal;text-transform:none;writing-mode:lr-tb;direction:ltr;text-orientation:mixed;dominant-baseline:auto;baseline-shift:baseline;text-anchor:start;white-space:normal;shape-padding:0;shape-margin:0;inline-size:0;clip-rule:nonzero;display:inline;overflow:visible;visibility:visible;isolation:auto;mix-blend-mode:normal;color-interpolation:sRGB;color-interpolation-filters:linearRGB;solid-color:#000000;solid-opacity:1;vector-effect:none;fill:#ececec;fill-opacity:1;fill-rule:nonzero;stroke:none;stroke-width:0.421622;stroke-linecap:round;stroke-linejoin:round;stroke-miterlimit:4;stroke-dasharray:none;stroke-dashoffset:0;stroke-opacity:1;color-rendering:auto;image-rendering:auto;shape-rendering:auto;text-rendering:auto;enable-background:accumulate;stop-color:#000000"
           d="m 13.199219,315.47656 0.199219,0.61133 -0.398805,0.60709 c -0.189585,-0.18624 -0.345663,-0.44119 -0.439086,-0.67545 -0.09128,-0.22889 -0.188512,-0.75281 -0.112063,-0.93698 z"
           id="path1238"
           sodipodi:nodetypes="cccscc" />
      </g>
      <path
         sodipodi:nodetypes="cccccccccccccccccscsssccssssccssscscccsscccsscccccccsccccccccccccccccccccccccccccccccsccccccccscccccccccccccccsccccccccccccccccccccccccccccccccccccccccccccccccccccccccccccccccccccccccccccc"
         d="m 0.26354976,326.89843 c 5.69e-4,0.14612 0.11949,0.26412 0.26561667,0.26355 H 16.404167 c 0.14532,-5.3e-4 0.262984,-0.11823 0.26355,-0.26355 4.5e-4,-0.0911 -0.04602,-0.17604 -0.12299,-0.22479 l -0.70745,-1.13585 c -0.771326,-2.3819 -1.231541,-3.85613 -0.779023,-5.91385 0.173662,-0.72009 0.414603,-1.40788 0.769721,-2.19729 l 0.0021,-0.002 c 0.0943,-0.1865 0.301348,-0.48979 0.488342,-0.85731 0.159418,-0.26121 0.270019,-0.55456 0.318843,-0.86868 0.05184,-0.26187 0.06281,-0.53658 0.0036,-0.81494 -0.158377,-1.02218 -0.921015,-1.66335 -1.760099,-1.92598 -0.0051,-0.002 -0.01023,-0.004 -0.0155,-0.006 -1.088911,-0.27302 -2.325288,-0.0369 -3.562573,0.10128 -1.197899,0.13379 -2.3830541,0.18152 -3.4245975,-0.29817 l -0.37207,-0.5979 C 7.1976448,311.66036 6.6551361,311.35824 6.0704274,311.35824 H 2.7750242 c -0.166703,-0.31247 -0.4922847,-0.52917 -0.8686804,-0.52917 l -0.6702437,6e-5 c -0.54264367,0 -0.98805334,0.4454 -0.98805334,0.98805 v 14.48077 z M 1.2361001,311.35829 h 0.6702437 c 0.2566647,0 0.4588867,0.20222 0.4588867,0.45889 v 14.48077 c 0,0.18442 -0.140676,0.3294 -0.3234947,0.33486 H 1.1027751 c -0.18288967,-0.005 -0.32556167,-0.15044 -0.32556167,-0.33486 v -14.48077 c 0,-0.25667 0.202222,-0.45889 0.45888667,-0.45889 z m 1.6582971,0.52917 h 3.1760332 c 0.4023997,0 0.7737744,0.20691 0.9859864,0.5488 l 8.8392542,14.19655 h -0.684196 c -3.104934,-4.43588 -5.3261697,-8.7388 -8.4031049,-13.18834 -0.317331,-0.45889 -0.9116997,-0.76378 -1.4665774,-0.76378 H 2.8943972 Z m 0.12144,1.3224 h 2.3259555 c 0.321874,0 0.8501247,0.27314 1.0314614,0.53537 0.08987,0.12995 0.176641,0.25935 0.2651,0.38912 l -1.4712271,1.28003 c -0.7144357,-0.7429 -1.4308174,-1.4805 -2.1512898,-2.20452 z m 9.8696818,0.20205 c -0.365756,0.26824 -0.652121,0.63722 -0.818038,1.06661 l -1.207162,0.293 -1.6924034,-1.13688 c 0.7326387,0.0774 1.4762294,0.0243 2.1936654,-0.0558 0.526968,-0.0589 1.035621,-0.12272 1.523938,-0.16692 z m 1.506884,0.0729 c 0.630756,0.0353 1.17368,0.38297 1.480013,0.89245 l -1.015958,0.59841 -0.464055,-0.33693 z m -0.529166,0.045 v 1.10949 l -0.470772,0.34261 -0.795301,-0.40669 c 0.232677,-0.52136 0.698078,-0.91295 1.266073,-1.04541 z m -10.9688398,0.3116 c 0.6256857,0.63253 1.2499984,1.27307 1.8727538,1.92082 l -1.8727538,1.62987 z m 5.6802737,0.0326 1.9719721,1.32447 0.02532,1.88257 z m -1.6371101,0.70073 c 0.4810847,0.71677 0.9390617,1.43052 1.3890624,2.14354 l -1.0221594,0.92088 c -0.5899647,-0.61385 -1.1804984,-1.22742 -1.7709511,-1.8429 z m 9.1410442,0.29456 c 0.05507,0.21255 0.05806,0.39303 0.05374,0.58808 -0.051,0.33717 -0.206581,0.68277 -0.375171,1.00045 -0.10073,0.13169 -0.218311,0.24906 -0.350366,0.34934 l -0.54467,-0.72658 0.198954,-0.61288 z m -4.155302,0.18913 c -0.01043,0.0902 -0.01705,0.18147 -0.01705,0.27441 2e-6,0.43267 0.118034,0.83786 0.320911,1.18804 l -1.121379,0.90743 -0.02894,-2.16317 z m 0.529167,0.0367 0.746725,0.38189 0.198437,0.61082 -0.38964,0.58394 c -0.352474,-0.33667 -0.572573,-0.81059 -0.572575,-1.33893 0,-0.0808 0.0071,-0.15966 0.01705,-0.23772 z m 1.676384,0.006 0.400492,0.29094 -0.154513,0.47232 h -0.494026 l -0.152446,-0.47232 z m -8.9948,1.04335 c 0.5916547,0.61694 1.1840011,1.23272 1.7766358,1.8495 l -2.0065968,1.80764 c -0.6288277,-0.59057 -1.2572971,-1.19411 -1.8851558,-1.81694 z m 8.69456,0.2496 h 0.609265 l 0.502811,0.67075 c -0.203309,0.0764 -0.423026,0.1199 -0.653706,0.1199 -0.30614,0 -0.593654,-0.0748 -0.847494,-0.20516 z m -1.285193,0.55397 c 0.435285,0.46973 1.054765,0.76636 1.743563,0.76636 0.327188,0 0.639316,-0.0664 0.923457,-0.18655 -0.25577,0.60183 -0.447856,1.15598 -0.58291,1.6769 l -3.262333,-1.30432 z m -3.9289601,0.22427 c 0.4692177,0.75071 0.9273334,1.50069 1.3828614,2.25051 -0.156973,0.15625 -0.326474,0.319 -0.487825,0.47749 -0.6144994,-0.61737 -1.2267571,-1.24503 -1.8381308,-1.87895 z m -1.3368691,1.20407 c 0.6153584,0.63832 1.2328271,1.27119 1.8531168,1.89445 -0.5929437,0.57752 -1.1978994,1.16147 -1.8195268,1.7539 -0.6737767,-0.61581 -1.3467944,-1.23344 -2.0195151,-1.86035 z m 4.1821742,0.13125 2.886129,1.15394 -1.335836,1.33583 z m -8.5653688,0.0935 c 0.5390737,0.53021 1.0775154,1.04882 1.6159221,1.55494 l -1.6159221,1.45573 z m 7.3855958,1.28674 c 0.45938,0.75735 0.92022,1.51491 1.387512,2.2748 -0.647708,0.63294 -1.38827,1.27115 -2.1280357,1.91409 -0.6131374,-0.57172 -1.2258211,-1.13308 -1.8381308,-1.69292 0.8880534,-0.84579 1.7609161,-1.68424 2.5786545,-2.49597 z m 4.132047,0.45682 c -0.134776,1.17958 0.02313,2.25229 0.348816,3.46439 l -1.463476,-2.34973 z m -9.514148,0.17415 c 0.6774657,0.63187 1.3544644,1.25245 2.0308838,1.87068 -0.5994227,0.57059 -1.1959321,1.14036 -1.7854208,1.70636 -0.7118547,-0.59285 -1.4204124,-1.19815 -2.1254518,-1.88412 z m 7.055384,2.10323 c 0.438709,0.70846 0.888872,1.41965 1.352889,2.1332 -0.570068,0.45015 -1.113698,0.89914 -1.653646,1.34514 -0.577837,-0.57018 -1.155571,-1.12532 -1.7327107,-1.6676 0.6321147,-0.53649 1.3587297,-1.15837 2.0334677,-1.81074 z m -4.6343432,0.12712 c 0.6075154,0.55539 1.2149131,1.11225 1.8215948,1.67742 -0.6547997,0.56829 -1.1460224,1.05381 -1.7394291,1.60766 -0.6190084,-0.57094 -1.2355421,-1.08749 -1.8494998,-1.59784 0.5831367,-0.55918 1.1732964,-1.12221 1.7673341,-1.68724 z m -4.4245356,0.0775 c 0.6241547,0.591 1.2454564,1.12345 1.8644858,1.63969 -0.4579797,0.442 -0.9037054,0.87793 -1.3353191,1.3069 -0.17726,-0.16572 -0.3539547,-0.33236 -0.5291667,-0.50488 z m 6.6213011,1.95027 c 0.5758817,0.54047 1.1513717,1.09365 1.7265097,1.66036 -0.07935,0.0649 -0.158564,0.13141 -0.238228,0.19586 H 8.0263832 c -0.08406,-0.0831 -0.1676927,-0.16177 -0.2516637,-0.24237 0.5611097,-0.54955 1.2137601,-1.16313 1.7409788,-1.61385 z m -4.3490883,0.0294 c 0.6179284,0.51346 1.2335951,1.02793 1.8463988,1.5906 l -0.2526977,0.23585 H 4.3242843 c -0.1739257,-0.17198 -0.3464197,-0.33401 -0.5188317,-0.49558 0.4395097,-0.43663 0.8930967,-0.88007 1.3611574,-1.33119 z m 8.428426,0.39584 c 0.313342,0.47545 0.635033,0.95216 0.966349,1.43093 h -2.315621 l -0.210323,-0.16227 c 0.51286,-0.42351 1.027609,-0.84756 1.559595,-1.26866 z m -10.7006388,0.79685 c 0.222263,0.21053 0.4430807,0.42645 0.6624917,0.63408 H 2.8210162 c 0.08966,-0.21755 0.07338,-0.3983 0.073381,-0.63408 z"
         style="color:#000000;font-style:normal;font-variant:normal;font-weight:normal;font-stretch:normal;font-size:medium;line-height:normal;font-family:sans-serif;font-variant-ligatures:normal;font-variant-position:normal;font-variant-caps:normal;font-variant-numeric:normal;font-variant-alternates:normal;font-variant-east-asian:normal;font-feature-settings:normal;font-variation-settings:normal;text-indent:0;text-align:start;text-decoration:none;text-decoration-line:none;text-decoration-style:solid;text-decoration-color:#000000;letter-spacing:normal;word-spacing:normal;text-transform:none;writing-mode:lr-tb;direction:ltr;text-orientation:mixed;dominant-baseline:auto;baseline-shift:baseline;text-anchor:start;white-space:normal;shape-padding:0;shape-margin:0;inline-size:0;clip-rule:nonzero;display:inline;overflow:visible;visibility:visible;isolation:auto;mix-blend-mode:normal;color-interpolation:sRGB;color-interpolation-filters:linearRGB;solid-color:#000000;solid-opacity:1;vector-effect:none;fill:#000000;fill-opacity:1;fill-rule:nonzero;stroke:none;stroke-width:0.421622;stroke-linecap:round;stroke-linejoin:round;stroke-miterlimit:4;stroke-dasharray:none;stroke-dashoffset:0;stroke-opacity:1;color-rendering:auto;image-rendering:auto;shape-rendering:auto;text-rendering:auto;enable-background:accumulate;stop-color:#000000"
         id="path1424" />
    </g>
  </g>
</svg>
