<?xml version="1.0" ?><svg xmlns="http://www.w3.org/2000/svg" xmlns:xlink="http://www.w3.org/1999/xlink" version="1.1" id="design" viewBox="0 0 100 100" style="enable-background:new 0 0 100 100;" xml:space="preserve"><style type="text/css">
	.st0{fill:#FFCACA;}
	.st1{fill:#333333;}
</style><g><path class="st0" d="M46.7,57.5H23c-2.2,0-4-1.8-4-4V23.1c0-2.2,1.8-4,4-4h23.7c2.2,0,4,1.8,4,4v30.3C50.8,55.7,49,57.5,46.7,57.5z   "/><g><path class="st1" d="M79.9,78.7h-1.4V36.1c1.5-0.5,2.5-1.8,2.5-3.5c0-2-1.6-3.7-3.7-3.7c-2,0-3.7,1.6-3.7,3.7    c0,0.6,0.1,1.1,0.4,1.6l-7,8.2c-0.4-0.1-0.7-0.2-1.2-0.2c-2,0-3.7,1.6-3.7,3.7c0,0.8,0.2,1.5,0.6,2l-7,11.2    c-0.4-0.2-0.9-0.3-1.4-0.3c-2,0-3.7,1.6-3.7,3.7c0,0.5,0.1,0.9,0.2,1.3l-5.5,4c-0.7-0.6-1.5-1-2.5-1c-1.9,0-3.4,1.4-3.6,3.2    l-4.6,0.9c-0.6-1.2-1.8-2.1-3.3-2.1c-2,0-3.7,1.6-3.7,3.7c0,1.6,1.1,3,2.5,3.5v2.8H29c-0.6,0-1.1,0.5-1.1,1.1s0.5,1.1,1.1,1.1    h50.9c0.6,0,1.1-0.5,1.1-1.1S80.5,78.7,79.9,78.7z M44.1,73.9c1.5-0.5,2.5-1.8,2.5-3.5c0-0.2,0-0.5-0.1-0.7l5.8-4.2    c0.3,0.2,0.6,0.3,0.9,0.4v12.7h-9.2V73.9z M55.6,66c1.5-0.5,2.5-1.8,2.5-3.5c0-0.7-0.2-1.4-0.6-1.9l7.1-11.3c0.1,0,0.1,0,0.2,0.1    v29.4h-9.2V66z M67,49.3c1.5-0.5,2.5-1.8,2.5-3.5c0-0.8-0.3-1.5-0.7-2.1l6.8-7.9c0.2,0.1,0.4,0.2,0.6,0.3v42.6H67V49.3z     M77.4,31.2c0.8,0,1.4,0.6,1.4,1.4c0,0.8-0.6,1.4-1.4,1.4s-1.4-0.6-1.4-1.4C75.9,31.8,76.6,31.2,77.4,31.2z M65.9,44.4    c0.8,0,1.4,0.6,1.4,1.4c0,0.8-0.6,1.4-1.4,1.4s-1.4-0.6-1.4-1.4C64.5,45.1,65.1,44.4,65.9,44.4z M54.5,61c0.8,0,1.4,0.6,1.4,1.4    s-0.6,1.4-1.4,1.4S53,63.3,53,62.5S53.7,61,54.5,61z M43,69c0.8,0,1.4,0.6,1.4,1.4s-0.6,1.4-1.4,1.4c-0.8,0-1.4-0.6-1.4-1.4    S42.2,69,43,69z M31.6,71c0.8,0,1.4,0.6,1.4,1.4s-0.6,1.4-1.4,1.4c-0.8,0-1.4-0.6-1.4-1.4S30.8,71,31.6,71z M32.7,75.9    c1.3-0.4,2.3-1.5,2.5-2.8l4.7-0.9c0.4,0.8,1.2,1.5,2.1,1.7v4.8h-9.2V75.9z"/><path class="st1" d="M31.7,43.6v2.6h-0.3c-0.6,0-1.1,0.5-1.1,1.1s0.5,1.1,1.1,1.1h1.5H37h1.5c0.6,0,1.1-0.5,1.1-1.1    s-0.5-1.1-1.1-1.1h-0.3v-2.6c1.9-0.9,3.3-2.7,3.7-4.8c0.2-0.1,0.4-0.1,0.6-0.2c1.4-0.4,3.3-0.9,3.3-3.6v-3.2    c0-0.6-0.5-1.1-1.1-1.1H42v-1.5c0-0.6-0.5-1.1-1.1-1.1h-12c-0.6,0-1.1,0.5-1.1,1.1v1.5h-2.5c-0.6,0-1.1,0.5-1.1,1.1v3.2    c0,2.7,1.8,3.2,3.3,3.6c0.2,0,0.4,0.1,0.6,0.2C28.4,40.9,29.8,42.6,31.7,43.6z M35.9,44.3v1.9h-2v-1.9c0,0,0,0,0.1,0    c0.3,0,0.6,0.1,0.9,0.1S35.5,44.3,35.9,44.3C35.8,44.3,35.8,44.3,35.9,44.3z M43.4,33v2.1c0,1-0.1,1.1-1.4,1.4V33H43.4z M30,30.4    h9.8v1.5v5.3c0,2.2-1.5,4.1-3.5,4.7c-0.2,0-0.3,0.1-0.5,0.1c-0.3,0-0.5,0.1-0.8,0.1c-0.1,0-0.1,0-0.2,0c-0.3,0-0.5,0-0.8-0.1    c-0.2,0-0.3-0.1-0.5-0.1c-2-0.6-3.5-2.5-3.5-4.7v-5.3V30.4z M26.4,35.1V33h1.4v3.5C26.5,36.1,26.4,36,26.4,35.1z"/></g></g></svg>